<svg viewBox="0 0 40 40" preserveAspectRatio="xMidYMid meet"><path d="M20,8.77c-3.34,0-10.52.83-7.86,11.7a9.06,9.06,0,0,0,3.12-1,3.83,3.83,0,0,1-1.31,1,10.67,10.67,0,0,0,7.93-3.69,9.41,9.41,0,0,1-1,2.37,11.33,11.33,0,0,0,4.24-5.52c0,1.19,1.35,2.72,2.07,4.09a4.54,4.54,0,0,1,.67,2.75C30.51,9.59,23.33,8.77,20,8.77Z"></path><path d="M34,12.37c-.83,0-1.69,2.75-1.69,2.75s-.46-.78-.74-1.18-.87-.23-1.46-.2c0-5.31-6.92-7.28-10.09-7.28s-10.07,2-10.09,7.28c-.59,0-1.21-.17-1.46.2s-.74,1.18-.74,1.18S6.86,12.37,6,12.37a9.37,9.37,0,0,0,0,1.17,39.29,39.29,0,0,0,1,6c.51,1.25,2,4.62,2.36,5.13s.79.5,1.34.3c0,0-.7-5-.75-7.93h.21c0-4.38,2.49-9.33,9.87-9.33s9.87,5,9.87,9.33h.21c-.05,3-.75,7.93-.75,7.93.55.2,1,.21,1.34-.3S32.52,20.75,33,19.5a39.29,39.29,0,0,0,1-6A9.37,9.37,0,0,0,34,12.37Z"></path><path d="M12.77,25.21A22.21,22.21,0,0,1,16,24.78c0,.15-.1.23-3,1.67,0,0-.1,0-.12-.16S12.67,25.23,12.77,25.21Z"></path><path d="M14,29.71a22.21,22.21,0,0,1,2.23-2.31c.06.15.06.24-1.31,3.15,0,0-.07.08-.19-.05S13.91,29.79,14,29.71Z"></path><path d="M27.23,25.21A22.21,22.21,0,0,0,24,24.78c0,.15.1.23,3,1.67,0,0,.1,0,.12-.16S27.33,25.23,27.23,25.21Z"></path><path d="M26,29.71a22.21,22.21,0,0,0-2.23-2.31c-.06.15-.06.24,1.31,3.15,0,0,.07.08.19-.05S26.09,29.79,26,29.71Z"></path></svg>